<?xml version="1.0" encoding="UTF-8"?>
<svg id="_圖層_1" data-name="圖層 1" xmlns="http://www.w3.org/2000/svg" xmlns:xlink="http://www.w3.org/1999/xlink" viewBox="0 0 50 50">
  <defs>
    <style>
      .cls-1 {
        fill: #fff;
      }

      .cls-2 {
        fill: url(#_未命名漸層_111);
      }

      .cls-3 {
        fill: url(#_未命名漸層_11);
      }

      .cls-4 {
        fill: url(#_未命名漸層_88);
      }
    </style>
    <linearGradient id="_未命名漸層_111" data-name="未命名漸層 111" x1="25" y1="38.71" x2="25" y2="1.34" gradientUnits="userSpaceOnUse">
      <stop offset="0" stop-color="#ec4899"/>
      <stop offset=".3" stop-color="#eb5593"/>
      <stop offset=".87" stop-color="#e87a84"/>
      <stop offset="1" stop-color="#e88481"/>
    </linearGradient>
    <linearGradient id="_未命名漸層_11" data-name="未命名漸層 11" x1="31.86" y1="48.66" x2="31.86" y2="38.74" gradientUnits="userSpaceOnUse">
      <stop offset="0" stop-color="#ec4899"/>
      <stop offset=".59" stop-color="#f7b7d7"/>
      <stop offset=".98" stop-color="#fff"/>
    </linearGradient>
    <linearGradient id="_未命名漸層_88" data-name="未命名漸層 88" x1="20.52" y1="48.58" x2="20.52" y2="7.84" gradientUnits="userSpaceOnUse">
      <stop offset="0" stop-color="#ec4899"/>
      <stop offset=".13" stop-color="#eb5195"/>
      <stop offset=".7" stop-color="#e87686"/>
      <stop offset="1" stop-color="#e88481"/>
    </linearGradient>
  </defs>
  <path class="cls-1" d="M35.95,23.3c0,5,0,10,0,15q0,.42-.42,.42c-2.33,0-5.4,0-7.73,0,0-.26,0-.07,0-.48,0-6.61-.01-13.16,0-19.77,0-.48-.06-.75-.45-1.01-1.73-1.16-3.31-2.26-5.03-3.44-2.35-1.61-5.57-3.05-7.92-4.66-.49-.34-1.72-1.94-1.69-2.03,.03-.1,1.55-.27,1.63-.27,7.11,0,14.51-.5,21.62-.5,.44,0,.76,1.37,.76,1.79,0,5.01-.76,9.92-.76,14.93Z"/>
  <g>
    <path class="cls-2" d="M13.26,38.64c-.13,.06-.26,.05-.39,.05-2.07,0-4.14,0-6.21,0-.28,0-.35-.09-.35-.36,0-12.22,0-24.44,0-36.66,0-.26,.06-.35,.33-.35,12.23,0,24.46,0,36.69,0,.29,0,.37,.09,.37,.38,0,12.19,0,24.38,0,36.57,0,.23,0,.43-.31,.42-.3,0-6.42,0-7.44,0,0-10.13-.06-20.62-.06-30.75q0-.44-.43-.44c-7.26,0-14.53,0-21.79,0-.09,0-.18-.01-.26,0-.15,.04-.26,.13-.15,.31,0,.12-.01,.25-.01,.37,0,9.14,0,18.27,0,27.41,0,1.01,0,2.02,0,3.03Z"/>
    <path class="cls-3" d="M27.78,48.58c0-3.14-.05-9.65,.01-9.86,1.52,0,6.98,0,8.15,0-.68,.88-1.54,1.76-2.22,2.64-1.54,1.98-3.09,3.96-4.63,5.94-.33,.42-.67,.83-.99,1.25-.11,.14-.2,.15-.32,.03Z"/>
    <path class="cls-4" d="M13.26,38.64c0-1.01,0-2.02,0-3.03,0-9.14,0-18.27,0-27.41,0-.12,0-.25,.01-.37,.05,.02,.11,.04,.15,.07,.83,.57,1.66,1.14,2.49,1.71,1.88,1.29,3.75,2.58,5.63,3.87,1.97,1.35,3.94,2.71,5.92,4.05,.25,.17,.34,.35,.34,.65,0,6.6,0,13.19,0,19.79,0,.26,0,.51,0,.77,0,.13-.01,.27-.01,.4,0,3.14,0,6.28,0,9.43-.59-.31-1.11-.73-1.66-1.1-1.52-1.03-3.03-2.08-4.54-3.12-1.69-1.16-3.39-2.33-5.08-3.49-1.08-.74-2.17-1.48-3.25-2.22Z"/>
  </g>
</svg>