<?xml version="1.0" encoding="UTF-8"?>
<svg id="_圖層_1" data-name="圖層 1" xmlns="http://www.w3.org/2000/svg" xmlns:xlink="http://www.w3.org/1999/xlink" viewBox="0 0 200 200">
  <defs>
    <style>
      .cls-1 {
        fill: #fff;
      }

      .cls-2 {
        fill: url(#_未命名漸層_120-4);
      }

      .cls-3 {
        fill: url(#_未命名漸層_120-9);
      }

      .cls-4 {
        fill: url(#_未命名漸層_120-3);
      }

      .cls-5 {
        fill: url(#_未命名漸層_120-2);
      }

      .cls-6 {
        fill: url(#_未命名漸層_120-6);
      }

      .cls-7 {
        fill: url(#_未命名漸層_120-8);
      }

      .cls-8 {
        fill: url(#_未命名漸層_120-7);
      }

      .cls-9 {
        fill: url(#_未命名漸層_120-5);
      }

      .cls-10 {
        fill: url(#_未命名漸層_111);
      }

      .cls-11 {
        fill: url(#_未命名漸層_120);
      }

      .cls-12 {
        fill: url(#_未命名漸層_11);
      }

      .cls-13 {
        fill: url(#_未命名漸層_88);
      }

      .cls-14 {
        fill: url(#_未命名漸層_120-10);
      }

      .cls-15 {
        fill: url(#_未命名漸層_120-12);
      }

      .cls-16 {
        fill: url(#_未命名漸層_120-13);
      }

      .cls-17 {
        fill: url(#_未命名漸層_120-14);
      }

      .cls-18 {
        fill: url(#_未命名漸層_120-11);
      }
    </style>
    <linearGradient id="_未命名漸層_120" data-name="未命名漸層 120" x1="145.53" y1="86.36" x2="145.53" y2="112.37" gradientUnits="userSpaceOnUse">
      <stop offset="0" stop-color="#ec4899"/>
      <stop offset=".3" stop-color="#eb5593"/>
      <stop offset=".87" stop-color="#e87a84"/>
      <stop offset="1" stop-color="#e88481"/>
    </linearGradient>
    <linearGradient id="_未命名漸層_120-2" data-name="未命名漸層 120" x1="145.54" y1="86.86" x2="145.54" y2="111.87" xlink:href="#_未命名漸層_120"/>
    <linearGradient id="_未命名漸層_120-3" data-name="未命名漸層 120" x1="72.39" y1="77.23" x2="72.39" y2="112.38" xlink:href="#_未命名漸層_120"/>
    <linearGradient id="_未命名漸層_120-4" data-name="未命名漸層 120" x1="72.39" y1="77.73" x2="72.39" y2="111.88" xlink:href="#_未命名漸層_120"/>
    <linearGradient id="_未命名漸層_120-5" data-name="未命名漸層 120" x1="94.59" y1="86.3" x2="94.59" y2="112.76" xlink:href="#_未命名漸層_120"/>
    <linearGradient id="_未命名漸層_120-6" data-name="未命名漸層 120" x1="94.59" y1="86.8" x2="94.59" y2="112.26" xlink:href="#_未命名漸層_120"/>
    <linearGradient id="_未命名漸層_120-7" data-name="未命名漸層 120" x1="117.15" y1="86.28" x2="117.15" y2="112.77" xlink:href="#_未命名漸層_120"/>
    <linearGradient id="_未命名漸層_120-8" data-name="未命名漸層 120" x1="117.15" y1="86.78" x2="117.15" y2="112.27" xlink:href="#_未命名漸層_120"/>
    <linearGradient id="_未命名漸層_120-9" data-name="未命名漸層 120" x1="182.76" y1="80.57" x2="182.76" y2="112.37" xlink:href="#_未命名漸層_120"/>
    <linearGradient id="_未命名漸層_120-10" data-name="未命名漸層 120" x1="182.76" y1="81.07" x2="182.76" y2="111.87" xlink:href="#_未命名漸層_120"/>
    <linearGradient id="_未命名漸層_120-11" data-name="未命名漸層 120" x1="168.73" y1="86.78" x2="168.73" y2="112.38" xlink:href="#_未命名漸層_120"/>
    <linearGradient id="_未命名漸層_120-12" data-name="未命名漸層 120" x1="168.73" y1="87.28" x2="168.73" y2="111.88" xlink:href="#_未命名漸層_120"/>
    <linearGradient id="_未命名漸層_120-13" data-name="未命名漸層 120" x1="168.7" y1="77" x2="168.7" y2="82.88" xlink:href="#_未命名漸層_120"/>
    <linearGradient id="_未命名漸層_120-14" data-name="未命名漸層 120" x1="168.7" y1="77.5" x2="168.7" y2="82.38" xlink:href="#_未命名漸層_120"/>
    <linearGradient id="_未命名漸層_111" data-name="未命名漸層 111" x1="30.48" y1="113.71" x2="30.48" y2="76.34" gradientUnits="userSpaceOnUse">
      <stop offset="0" stop-color="#ec4899"/>
      <stop offset=".3" stop-color="#eb5593"/>
      <stop offset=".87" stop-color="#e87a84"/>
      <stop offset="1" stop-color="#e88481"/>
    </linearGradient>
    <linearGradient id="_未命名漸層_11" data-name="未命名漸層 11" x1="37.33" y1="123.66" x2="37.33" y2="113.74" gradientUnits="userSpaceOnUse">
      <stop offset="0" stop-color="#ec4899"/>
      <stop offset=".59" stop-color="#f7b7d7"/>
      <stop offset=".98" stop-color="#fff"/>
    </linearGradient>
    <linearGradient id="_未命名漸層_88" data-name="未命名漸層 88" x1="26" y1="123.58" x2="26" y2="82.84" gradientUnits="userSpaceOnUse">
      <stop offset="0" stop-color="#ec4899"/>
      <stop offset=".13" stop-color="#eb5195"/>
      <stop offset=".7" stop-color="#e87686"/>
      <stop offset="1" stop-color="#e88481"/>
    </linearGradient>
  </defs>
  <g>
    <path class="cls-11" d="M144.65,112.36c-.53,0-.91-.38-.94-.93,0-.12,0-.24,0-.36v-5.01c0-3.53,0-7.06,0-10.59,0-.79-.04-1.81-.35-2.78-.4-1.25-.95-2.03-1.79-2.53-.47-.28-.96-.41-1.5-.41-.36,0-.74,.06-1.14,.18-1.14,.35-1.92,1.15-2.43,2.53-.35,.95-.4,1.98-.4,2.95,0,3.84,0,7.67,0,11.51v4.06c0,1.1-.3,1.4-1.39,1.4h-1.21c-.61,0-.94-.32-1.01-.92-.02-.15-.02-.3-.02-.46v-22.94c0-1.08,.26-1.34,1.33-1.34h1.15c.79,.01,1.12,.34,1.13,1.14,0,.16,0,.31,0,.46,.86-.9,1.92-1.49,3.17-1.77,.55-.12,1.09-.18,1.62-.18,2.3,0,4.25,1.18,5.37,3.26,.77-1.31,1.85-2.24,3.23-2.77,.82-.32,1.67-.48,2.53-.48,.39,0,.79,.03,1.18,.1,1.99,.32,3.43,1.46,4.42,3.48,.61,1.24,.93,2.66,.95,4.22,.02,1.94,.02,3.88,.02,5.83v11.04c0,.16,0,.31-.01,.47-.04,.52-.41,.87-.94,.88-.29,0-.59,0-.88,0s-.59,0-.88,0c-.49,0-.86-.34-.94-.86-.02-.14-.02-.28-.02-.42v-3.93c0-3.82,0-7.65,0-11.47,0-.91-.02-1.86-.26-2.76-.38-1.4-.95-2.25-1.85-2.78-.46-.27-.96-.4-1.5-.4-.36,0-.74,.06-1.15,.18-.94,.27-1.64,.91-2.16,1.96-.29,.58-.47,1.26-.56,2.07-.06,.57-.08,1.18-.08,1.97,0,5,0,10,0,15,0,.24,0,.38,0,.52-.04,.54-.42,.91-.95,.92-.29,0-.59,0-.88,0s-.59,0-.88,0Z"/>
    <path class="cls-5" d="M132.97,99.51c0-3.82,0-7.64,0-11.46,0-.8,.04-.84,.84-.84,.38,0,.76,0,1.14,0,.52,0,.63,.12,.64,.65,0,.46,0,.91,0,1.37,0,.1-.04,.24,.09,.28,.13,.04,.17-.1,.22-.18,.87-1.21,2.04-1.98,3.47-2.3,2.7-.6,5.27,.37,6.6,3.11,.07,.15,.08,.41,.29,.41,.15,0,.19-.23,.26-.37,.7-1.34,1.74-2.32,3.15-2.87,1.11-.43,2.26-.55,3.45-.35,1.96,.32,3.22,1.5,4.06,3.2,.62,1.26,.88,2.61,.89,4,.02,2.37,.02,4.74,.02,7.12,0,3.25,0,6.5,0,9.74,0,.14,0,.29-.01,.43-.02,.27-.19,.41-.45,.42-.58,0-1.16,0-1.74,0-.27,0-.41-.18-.45-.43-.02-.15-.01-.3-.01-.46,0-5.1,0-10.19,0-15.29,0-.98-.02-1.95-.28-2.89-.34-1.25-.9-2.39-2.08-3.08-.96-.56-1.99-.58-3.04-.28-1.18,.34-1.95,1.16-2.47,2.22-.35,.7-.52,1.46-.6,2.24-.07,.67-.09,1.35-.09,2.03,0,5,0,10,0,15,0,.16,0,.32,0,.49-.02,.27-.18,.44-.46,.45-.58,.01-1.16,0-1.74,0-.27,0-.43-.18-.44-.46,0-.15,0-.3,0-.46,0-5.16,0-10.33,0-15.49,0-.99-.07-1.98-.38-2.93-.37-1.15-.94-2.17-2.02-2.81-.96-.57-1.99-.6-3.03-.28-1.43,.44-2.25,1.48-2.75,2.83-.37,1.01-.43,2.06-.44,3.12-.01,5.19,0,10.38,0,15.57,0,.83-.07,.9-.89,.9-.4,0-.8,0-1.2,0-.35,0-.48-.12-.52-.47-.02-.14-.01-.29-.01-.43,0-3.82,0-7.64,0-11.46Z"/>
    <path class="cls-4" d="M78.31,112.38c-.53,0-.93-.28-1.11-.78-.17-.48-.35-.97-.52-1.46l-1.41-4.08c-.33-.97-.66-1.93-1-2.89l-1.58-4.49c-.24-.69-.47-1.37-.7-2.07-.04-.11-.06-.19-.08-.24,0,0-.04,0-.08,0h-4.22v14.42c0,1.27-.31,1.58-1.57,1.58h-.89c-.71-.01-1.11-.39-1.17-1.1,0-.14,0-.27,0-.41v-32.26c0-1,.38-1.38,1.37-1.38h4.07c1.01,0,2.02,0,3.03,0,1.26,0,2.39,.24,3.38,.69,1.2,.56,2.2,1.4,2.98,2.51,.5,.72,.92,1.53,1.26,2.48,.26,.73,.42,1.46,.48,2.19l.04,.48c.04,.39,.07,.77,.07,1.16,0,.92-.06,1.75-.2,2.53-.11,.64-.29,1.28-.53,1.9-.48,1.26-1.14,2.29-2.02,3.16-.69,.68-1.5,1.2-2.4,1.55-.04,.02-.15,.07-.17,.08,0,0,1.33,3.72,1.99,5.56l3.39,9.54c.17,.46,.05,.77-.07,.94-.12,.17-.36,.38-.84,.39h-.96c-.16,0-.53,0-.54,0Zm-7.13-19.11c.57,0,1.1,0,1.64-.08,.97-.15,1.68-.45,2.24-.95,1.11-1,1.76-2.35,1.94-4.02,.14-1.38,.09-2.49-.16-3.52-.15-.61-.36-1.32-.77-1.96-.89-1.4-2.06-2.1-3.55-2.15-.78-.02-1.56-.03-2.34-.03h-2.58v12.71h3.57Z"/>
    <path class="cls-2" d="M64.49,94.81c0-5.31,0-10.61,0-15.92,0-.1,0-.19,0-.29,0-.72,.16-.88,.87-.88,2.36,0,4.73,0,7.09,0,1.1,0,2.18,.19,3.17,.65,1.13,.52,2.06,1.31,2.78,2.34,.52,.73,.9,1.53,1.19,2.36,.24,.66,.4,1.35,.45,2.06,.04,.53,.11,1.06,.11,1.59,0,.82-.05,1.63-.19,2.44-.11,.62-.28,1.22-.5,1.81-.43,1.13-1.04,2.13-1.91,2.98-.65,.64-1.39,1.11-2.24,1.44-.06,.02-.12,.05-.18,.08-.42,.22-.42,.23-.26,.65,.66,1.84,1.32,3.69,1.98,5.53,.63,1.78,1.26,3.56,1.9,5.35,.5,1.4,.99,2.79,1.49,4.19,.15,.41,0,.66-.44,.66-.49,0-.97,0-1.46,0-.34,.01-.56-.14-.68-.45-.17-.48-.35-.97-.52-1.45-.35-1.01-.69-2.01-1.04-3.02-.46-1.32-.91-2.64-1.37-3.96-.52-1.5-1.05-2.99-1.58-4.49-.24-.68-.47-1.36-.69-2.05-.16-.52-.23-.58-.76-.58-1.36,0-2.73,0-4.09,0-.49,0-.51,.03-.51,.52,0,4.8,0,9.6,0,14.4,0,.99-.08,1.08-1.07,1.08-.3,0-.59,0-.89,0-.45,0-.64-.18-.67-.63-.01-.16,0-.32,0-.49,0-5.31,0-10.63,0-15.94Zm2.62-7.91c0,2.11,0,4.23,0,6.34,0,.46,.07,.52,.53,.52,1.18,0,2.36,0,3.54,0,.57,0,1.14,0,1.71-.09,.93-.14,1.79-.44,2.5-1.08,1.29-1.16,1.93-2.66,2.1-4.34,.13-1.22,.13-2.46-.17-3.69-.18-.75-.42-1.46-.83-2.11-.93-1.45-2.21-2.33-3.96-2.38-1.65-.05-3.3-.02-4.94-.02-.44,0-.49,.05-.49,.5,0,2.11,0,4.23,0,6.34Z"/>
    <path class="cls-9" d="M94.65,112.76c-.48,0-.99-.04-1.51-.1-1.87-.24-3.42-1.08-4.61-2.48-.78-.92-1.3-2.02-1.56-3.28-.17-.83-.21-1.65-.21-2.63v-1.81c0-2.71,0-5.43,0-8.14,0-1.64,.28-2.93,.88-4.04,1.14-2.12,2.87-3.4,5.16-3.8,.67-.12,1.31-.18,1.92-.18,1.36,0,2.61,.29,3.74,.87,1.78,.92,2.99,2.38,3.58,4.34,.25,.84,.38,1.76,.38,2.82v6.79c0,1.23,0,2.47,0,3.7-.01,1.47-.25,2.66-.76,3.73-.77,1.62-1.97,2.8-3.57,3.51-1.05,.46-2.18,.69-3.43,.69Zm-.1-23.03c-.16,0-.32,0-.49,.02-.71,.05-1.35,.29-1.9,.72-1.1,.87-1.67,2.03-1.68,3.45-.02,2.41-.02,4.83-.02,7.24v3.55c0,.95,.15,1.7,.48,2.38,.59,1.18,1.42,1.88,2.53,2.15,.4,.09,.79,.14,1.16,.14,1.08,0,1.99-.39,2.79-1.18,.66-.65,1.07-1.49,1.21-2.48,.08-.56,.08-1.16,.08-1.72,0-1.04,0-2.08,0-3.12v-2.6c0-1.22,0-2.43,0-3.65,0-.51-.01-.93-.08-1.34-.16-.88-.5-1.62-1.02-2.21-.47-.54-1.01-.9-1.63-1.12-.43-.15-.91-.23-1.45-.23Z"/>
    <path class="cls-6" d="M101.92,99.54c0,1.76,0,3.52,0,5.29,0,1.22-.18,2.4-.71,3.52-.71,1.5-1.81,2.6-3.32,3.26-1.5,.66-3.07,.76-4.67,.55-1.73-.22-3.17-.98-4.29-2.31-.75-.89-1.22-1.91-1.45-3.05-.17-.84-.2-1.68-.2-2.53,0-3.31,0-6.63,0-9.94,0-1.33,.18-2.62,.82-3.81,1.04-1.94,2.62-3.16,4.8-3.54,1.84-.32,3.66-.22,5.35,.65,1.68,.86,2.79,2.23,3.33,4.04,.26,.87,.35,1.77,.36,2.68,0,1.73,0,3.47,0,5.2Zm-2.69,.01c0-1.65,0-3.29,0-4.94,0-.48,0-.96-.09-1.42-.16-.91-.51-1.75-1.13-2.45-.5-.57-1.1-1-1.83-1.26-.7-.25-1.41-.29-2.14-.24-.81,.05-1.54,.33-2.18,.83-1.24,.97-1.85,2.29-1.87,3.84-.03,3.6-.02,7.2-.03,10.8,0,.91,.13,1.78,.54,2.6,.6,1.22,1.52,2.1,2.87,2.41,1.67,.39,3.18,.06,4.42-1.17,.77-.76,1.2-1.71,1.36-2.76,.09-.59,.09-1.19,.09-1.8-.01-1.48,0-2.95,0-4.43Z"/>
    <path class="cls-8" d="M117.13,112.77c-.62,0-1.25-.06-1.87-.18-2.45-.48-4.21-1.87-5.24-4.13-.44-.98-.67-2.03-.67-3.11,0-1.36,0-5.83,0-5.83,0-.03,0-.06,0-.08,0-.6,0-1.2-.01-1.8-.01-1.39-.03-2.83,.03-4.25,.12-3.07,2.1-5.74,4.94-6.63,.98-.31,1.96-.47,2.9-.47,1.31,0,2.58,.3,3.78,.89,1.76,.86,2.96,2.29,3.58,4.25,.26,.83,.4,1.72,.4,2.65v3.65c0,2.5,0,5,0,7.49-.01,2.08-.7,3.86-2.05,5.27-.84,.88-1.85,1.51-3.02,1.87-.89,.28-1.82,.42-2.75,.42Zm.05-23.07c-.4,0-.82,.06-1.25,.17-1.03,.27-1.8,.92-2.36,1.98-.38,.72-.56,1.55-.56,2.61v10.23c0,1.07,.21,1.95,.64,2.67,.79,1.33,1.9,1.98,3.4,1.99h0c1.64,0,2.82-.69,3.65-2.1,.41-.7,.6-1.53,.6-2.61,.02-3.4,.02-6.8,0-10.19,0-.92-.15-1.65-.44-2.3-.35-.79-.84-1.38-1.49-1.8-.67-.43-1.4-.65-2.18-.65Z"/>
    <path class="cls-7" d="M109.86,99.51c0-2.04-.06-4.08,.02-6.11,.1-2.77,1.84-5.31,4.59-6.17,2.14-.67,4.27-.61,6.31,.39,1.67,.82,2.76,2.17,3.32,3.95,.26,.81,.37,1.65,.37,2.5,0,3.71,.01,7.43-.01,11.14-.01,1.87-.6,3.55-1.91,4.93-.78,.82-1.72,1.4-2.81,1.74-1.44,.45-2.91,.51-4.38,.22-2.27-.44-3.92-1.73-4.87-3.85-.42-.92-.62-1.89-.63-2.91,0-1.94,0-3.89,0-5.83,0,0,0,0,0,0Zm2.65,.03c0,1.71,0,3.43,0,5.14,0,1.04,.18,2.04,.71,2.93,.86,1.44,2.12,2.23,3.82,2.24,1.82,.01,3.18-.79,4.08-2.35,.51-.88,.67-1.86,.67-2.86,.02-3.4,.02-6.8,0-10.2,0-.85-.12-1.7-.48-2.5-.37-.83-.91-1.52-1.67-2.01-1.19-.77-2.49-.9-3.83-.55-1.23,.32-2.09,1.12-2.68,2.23-.47,.89-.62,1.85-.62,2.84,0,1.7,0,3.39,0,5.09Z"/>
    <path class="cls-3" d="M186.36,112.37c-.77,0-1.39-.04-1.96-.14-1.15-.19-2.08-.6-2.83-1.25-.57-.5-.96-1.16-1.22-2.09-.34-1.18-.38-2.38-.38-3.39v-15.66s-1.55,0-1.55,0c-.73,0-1.11-.38-1.11-1.12,0-.34,0-.67,0-1.01,0-.65,.34-.99,.98-1,.25,0,.51,0,.76,0,0,0,.89,0,.92,0,0-.03,0-4.86,0-4.86,0-.21,0-.33,.02-.45,.09-.52,.43-.83,.92-.83h1.15c.19,0,.38,0,.57,0,.36,0,.96,.15,.96,1.01v5.12s2.9,0,2.9,0h.75c.51,.01,.88,.34,.93,.85,.05,.51,.05,.96,0,1.4-.11,.89-.88,.89-1.13,.89h-3.44s0,15.07,0,15.07c0,.87,.06,1.53,.2,2.12,.29,1.21,.96,1.8,2.2,1.91,.22,.02,.44,.02,.66,.03h.38c.8,.04,.98,.56,1,.99,.02,.47,.02,.94,0,1.41-.02,.44-.21,.97-1.03,.99-.21,0-.43,0-.64,0Z"/>
    <path class="cls-14" d="M180.47,98.17c0-2.79,0-5.58,0-8.37,0-.44-.01-.45-.45-.45-.53,0-1.07,0-1.6,0-.46,0-.61-.16-.62-.62,0-.33,0-.67,0-1,0-.38,.12-.5,.5-.51,.52-.01,1.05,0,1.57,0q.6,0,.6-.61c0-1.58,0-3.16,0-4.74,0-.12,0-.25,.01-.37,.04-.24,.16-.41,.43-.41,.57,0,1.14-.01,1.72,0,.34,0,.47,.15,.47,.51,0,1.32,0,2.65,0,3.97,0,.4,0,.8,0,1.2,0,.38,.07,.45,.45,.45,.98,0,1.96,0,2.95,0,.25,0,.5,0,.74,0,.26,0,.41,.14,.44,.39,.05,.43,.05,.86,0,1.28-.04,.35-.21,.45-.64,.46-1.12,0-2.25,0-3.37,0-.09,0-.17,0-.26,0-.21,0-.33,.08-.31,.31,0,.06,0,.11,0,.17,0,5.03,0,10.06,0,15.09,0,.75,.04,1.5,.22,2.24,.33,1.42,1.18,2.16,2.64,2.3,.35,.03,.7,.03,1.06,.04,.36,.01,.51,.14,.52,.5,.02,.46,.02,.91,0,1.37-.02,.38-.17,.5-.54,.51-.84,.02-1.68,.01-2.51-.12-.95-.16-1.84-.49-2.58-1.13-.56-.49-.87-1.14-1.07-1.85-.3-1.06-.36-2.15-.36-3.25,0-2.45,0-4.9,0-7.34Z"/>
    <g>
      <path class="cls-18" d="M168.07,112.37c-.65,0-1.04-.35-1.13-1-.02-.12-.02-.23-.02-.35v-22.72c0-1.18,.34-1.52,1.51-1.52h.5c.16,0,.32,0,.47,0,.68,.03,1.08,.42,1.13,1.1,.01,.13,.01,.26,0,.39v22.57c0,1.21-.31,1.53-1.53,1.53h-.95Z"/>
      <path class="cls-15" d="M170.05,99.59c0,3.75,0,7.51,0,11.26,0,.94-.09,1.03-1.03,1.03-.31,0-.63,0-.94,0-.41,0-.59-.16-.64-.57-.02-.11-.01-.23-.01-.34,0-7.55,0-15.11,0-22.66,0-.9,.12-1.02,1.02-1.02,.31,0,.63,0,.94,0,.43,.02,.62,.21,.65,.64,.01,.14,0,.29,0,.43,0,3.74,0,7.49,0,11.23Z"/>
      <path class="cls-16" d="M168.66,82.88c-.8,0-1.51-.29-2.05-.82-.55-.55-.86-1.31-.85-2.09,0-1.47,1.02-2.96,2.95-2.96,.83,0,1.55,.29,2.09,.84,.54,.54,.85,1.31,.84,2.11,0,1.67-1.23,2.9-2.92,2.93,0,0-.06,0-.06,0Z"/>
      <path class="cls-17" d="M171.15,79.94c0,1.41-1.03,2.41-2.43,2.43-1.58,.03-2.46-1.24-2.45-2.41,0-1.31,.87-2.47,2.46-2.47,1.51,0,2.43,1.17,2.43,2.44Z"/>
    </g>
  </g>
  <g>
    <path class="cls-1" d="M41.42,98.3c0,5,0,10,0,15q0,.42-.42,.42c-2.33,0-5.4,0-7.73,0,0-.26,0-.07,0-.48,0-6.61-.01-13.16,0-19.77,0-.48-.06-.75-.45-1.01-1.73-1.16-3.31-2.26-5.03-3.44-2.35-1.61-5.57-3.05-7.92-4.66-.49-.34-1.72-1.94-1.69-2.03,.03-.1,1.55-.27,1.63-.27,7.11,0,14.51-.5,21.62-.5,.44,0,.76,1.37,.76,1.79,0,5.01-.76,9.92-.76,14.93Z"/>
    <g>
      <path class="cls-10" d="M18.73,113.64c-.13,.06-.26,.05-.39,.05-2.07,0-4.14,0-6.21,0-.28,0-.35-.09-.35-.36,0-12.22,0-24.44,0-36.66,0-.26,.06-.35,.33-.35,12.23,0,24.46,0,36.69,0,.29,0,.37,.09,.37,.38,0,12.19,0,24.38,0,36.57,0,.23,0,.43-.31,.42-.3,0-6.42,0-7.44,0,0-10.13-.06-20.62-.06-30.75q0-.44-.43-.44c-7.26,0-14.53,0-21.79,0-.09,0-.18-.01-.26,0-.15,.04-.26,.13-.15,.31,0,.12-.01,.25-.01,.37,0,9.14,0,18.27,0,27.41,0,1.01,0,2.02,0,3.03Z"/>
      <path class="cls-12" d="M33.26,123.58c0-3.14-.05-9.65,.01-9.86,1.52,0,6.98,0,8.15,0-.68,.88-1.54,1.76-2.22,2.64-1.54,1.98-3.09,3.96-4.63,5.94-.33,.42-.67,.83-.99,1.25-.11,.14-.2,.15-.32,.03Z"/>
      <path class="cls-13" d="M18.73,113.64c0-1.01,0-2.02,0-3.03,0-9.14,0-18.27,0-27.41,0-.12,0-.25,.01-.37,.05,.02,.11,.04,.15,.07,.83,.57,1.66,1.14,2.49,1.71,1.88,1.29,3.75,2.58,5.63,3.87,1.97,1.35,3.94,2.71,5.92,4.05,.25,.17,.34,.35,.34,.65,0,6.6,0,13.19,0,19.79,0,.26,0,.51,0,.77,0,.13-.01,.27-.01,.4,0,3.14,0,6.28,0,9.43-.59-.31-1.11-.73-1.66-1.1-1.52-1.03-3.03-2.08-4.54-3.12-1.69-1.16-3.39-2.33-5.08-3.49-1.08-.74-2.17-1.48-3.25-2.22Z"/>
    </g>
  </g>
</svg>