<?xml version="1.0" encoding="UTF-8"?>
<svg id="_圖層_1" data-name="圖層 1" xmlns="http://www.w3.org/2000/svg" xmlns:xlink="http://www.w3.org/1999/xlink" viewBox="0 0 147.09 39.56">
  <defs>
    <style>
      .cls-1 {
        fill: #fff;
      }

      .cls-2 {
        fill: url(#_未命名漸層_120-4);
      }

      .cls-3 {
        fill: url(#_未命名漸層_120-9);
      }

      .cls-4 {
        fill: url(#_未命名漸層_120-3);
      }

      .cls-5 {
        fill: url(#_未命名漸層_120-2);
      }

      .cls-6 {
        fill: url(#_未命名漸層_120-6);
      }

      .cls-7 {
        fill: url(#_未命名漸層_120-8);
      }

      .cls-8 {
        fill: url(#_未命名漸層_120-7);
      }

      .cls-9 {
        fill: url(#_未命名漸層_120-5);
      }

      .cls-10 {
        fill: url(#_未命名漸層_111);
      }

      .cls-11 {
        fill: url(#_未命名漸層_120);
      }

      .cls-12 {
        fill: url(#_未命名漸層_11);
      }

      .cls-13 {
        fill: url(#_未命名漸層_88);
      }

      .cls-14 {
        fill: url(#_未命名漸層_120-10);
      }

      .cls-15 {
        fill: url(#_未命名漸層_120-12);
      }

      .cls-16 {
        fill: url(#_未命名漸層_120-13);
      }

      .cls-17 {
        fill: url(#_未命名漸層_120-14);
      }

      .cls-18 {
        fill: url(#_未命名漸層_120-11);
      }
    </style>
    <linearGradient id="_未命名漸層_120" data-name="未命名漸層 120" x1="111.5" y1="8.35" x2="111.5" y2="30.04" gradientUnits="userSpaceOnUse">
      <stop offset="0" stop-color="#ec4899"/>
      <stop offset=".3" stop-color="#eb5593"/>
      <stop offset=".87" stop-color="#e87a84"/>
      <stop offset="1" stop-color="#e88481"/>
    </linearGradient>
    <linearGradient id="_未命名漸層_120-2" data-name="未命名漸層 120" x1="111.5" y1="8.77" x2="111.5" y2="29.62" xlink:href="#_未命名漸層_120"/>
    <linearGradient id="_未命名漸層_120-3" data-name="未命名漸層 120" x1="50.53" y1=".74" x2="50.53" y2="30.05" xlink:href="#_未命名漸層_120"/>
    <linearGradient id="_未命名漸層_120-4" data-name="未命名漸層 120" x1="50.53" y1="1.16" x2="50.53" y2="29.63" xlink:href="#_未命名漸層_120"/>
    <linearGradient id="_未命名漸層_120-5" data-name="未命名漸層 120" x1="69.04" y1="8.31" x2="69.04" y2="30.36" xlink:href="#_未命名漸層_120"/>
    <linearGradient id="_未命名漸層_120-6" data-name="未命名漸層 120" x1="69.04" y1="8.73" x2="69.04" y2="29.94" xlink:href="#_未命名漸層_120"/>
    <linearGradient id="_未命名漸層_120-7" data-name="未命名漸層 120" x1="87.84" y1="8.29" x2="87.84" y2="30.37" xlink:href="#_未命名漸層_120"/>
    <linearGradient id="_未命名漸層_120-8" data-name="未命名漸層 120" x1="87.84" y1="8.71" x2="87.84" y2="29.96" xlink:href="#_未命名漸層_120"/>
    <linearGradient id="_未命名漸層_120-9" data-name="未命名漸層 120" x1="142.54" y1="3.53" x2="142.54" y2="30.04" xlink:href="#_未命名漸層_120"/>
    <linearGradient id="_未命名漸層_120-10" data-name="未命名漸層 120" x1="142.54" y1="3.94" x2="142.54" y2="29.63" xlink:href="#_未命名漸層_120"/>
    <linearGradient id="_未命名漸層_120-11" data-name="未命名漸層 120" x1="130.84" y1="8.71" x2="130.84" y2="30.04" xlink:href="#_未命名漸層_120"/>
    <linearGradient id="_未命名漸層_120-12" data-name="未命名漸層 120" x1="130.84" y1="9.12" x2="130.84" y2="29.63" xlink:href="#_未命名漸層_120"/>
    <linearGradient id="_未命名漸層_120-13" data-name="未命名漸層 120" x1="130.82" y1=".55" x2="130.82" y2="5.45" xlink:href="#_未命名漸層_120"/>
    <linearGradient id="_未命名漸層_120-14" data-name="未命名漸層 120" x1="130.82" y1=".97" x2="130.82" y2="5.03" xlink:href="#_未命名漸層_120"/>
    <linearGradient id="_未命名漸層_111" data-name="未命名漸層 111" x1="15.58" y1="31.16" x2="15.58" y2="0" gradientUnits="userSpaceOnUse">
      <stop offset="0" stop-color="#ec4899"/>
      <stop offset=".3" stop-color="#eb5593"/>
      <stop offset=".87" stop-color="#e87a84"/>
      <stop offset="1" stop-color="#e88481"/>
    </linearGradient>
    <linearGradient id="_未命名漸層_11" data-name="未命名漸層 11" x1="21.3" y1="39.45" x2="21.3" y2="31.18" gradientUnits="userSpaceOnUse">
      <stop offset="0" stop-color="#ec4899"/>
      <stop offset=".59" stop-color="#f7b7d7"/>
      <stop offset=".98" stop-color="#fff"/>
    </linearGradient>
    <linearGradient id="_未命名漸層_88" data-name="未命名漸層 88" x1="11.85" y1="39.38" x2="11.85" y2="5.42" gradientUnits="userSpaceOnUse">
      <stop offset="0" stop-color="#ec4899"/>
      <stop offset=".13" stop-color="#eb5195"/>
      <stop offset=".7" stop-color="#e87686"/>
      <stop offset="1" stop-color="#e88481"/>
    </linearGradient>
  </defs>
  <g>
    <path class="cls-11" d="M110.77,30.03c-.45,0-.76-.32-.78-.78,0-.1,0-.2,0-.3v-4.18c0-2.94,0-5.89,0-8.83,0-.65-.04-1.51-.3-2.32-.33-1.04-.79-1.69-1.49-2.11-.39-.23-.8-.34-1.25-.34-.3,0-.62,.05-.95,.15-.95,.29-1.6,.96-2.02,2.11-.29,.79-.33,1.65-.34,2.46,0,3.2,0,6.4,0,9.6v3.39c0,.91-.25,1.16-1.16,1.16h-1.01c-.5,0-.79-.26-.84-.77-.01-.12-.01-.25-.01-.38V9.76c0-.9,.22-1.12,1.11-1.12h.96c.66,0,.93,.28,.94,.95,0,.13,0,.26,0,.39,.71-.75,1.6-1.24,2.64-1.48,.46-.1,.91-.15,1.35-.15,1.92,0,3.54,.99,4.48,2.72,.64-1.09,1.54-1.87,2.69-2.31,.68-.26,1.39-.4,2.11-.4,.32,0,.66,.03,.99,.08,1.66,.27,2.86,1.22,3.69,2.9,.51,1.04,.78,2.22,.79,3.52,.02,1.62,.02,3.24,.02,4.86v9.2c0,.13,0,.26-.01,.39-.04,.44-.34,.72-.79,.73-.24,0-.49,0-.73,0s-.49,0-.73,0c-.41,0-.72-.29-.78-.72-.02-.12-.02-.23-.01-.35v-3.27c0-3.19,0-6.37,0-9.56,0-.75-.02-1.55-.22-2.3-.32-1.16-.79-1.88-1.55-2.32-.39-.23-.8-.34-1.25-.34-.3,0-.62,.05-.96,.15-.78,.23-1.37,.76-1.8,1.63-.24,.49-.39,1.05-.46,1.73-.05,.48-.07,.99-.07,1.65,0,4.17,0,8.34,0,12.51,0,.2,0,.32,0,.43-.03,.45-.35,.76-.79,.76-.25,0-.49,0-.73,0s-.49,0-.73,0Z"/>
    <path class="cls-5" d="M101.03,19.32c0-3.18,0-6.37,0-9.55,0-.67,.04-.7,.7-.7,.32,0,.64,0,.95,0,.43,0,.53,.1,.53,.54,0,.38,0,.76,0,1.14,0,.08-.03,.2,.07,.23,.11,.04,.14-.09,.19-.15,.72-1,1.7-1.65,2.89-1.92,2.25-.5,4.39,.3,5.5,2.6,.06,.13,.07,.34,.24,.34,.12,0,.16-.2,.22-.31,.58-1.12,1.45-1.94,2.63-2.4,.93-.36,1.89-.45,2.88-.29,1.63,.26,2.68,1.25,3.38,2.67,.52,1.05,.73,2.18,.75,3.34,.02,1.98,.02,3.95,.02,5.93,0,2.71,0,5.42,0,8.12,0,.12,0,.24-.01,.36-.02,.23-.16,.34-.38,.35-.48,0-.97,0-1.45,0-.23,0-.34-.15-.38-.36-.02-.12,0-.25,0-.38,0-4.25,0-8.5,0-12.75,0-.81-.02-1.63-.23-2.41-.29-1.05-.75-1.99-1.74-2.57-.8-.47-1.66-.48-2.53-.23-.98,.28-1.62,.96-2.06,1.85-.29,.59-.44,1.22-.5,1.87-.06,.56-.07,1.12-.07,1.69,0,4.17,0,8.34,0,12.51,0,.13,0,.27,0,.4-.02,.23-.15,.37-.38,.37-.48,0-.97,0-1.45,0-.23,0-.36-.15-.37-.38,0-.13,0-.25,0-.38,0-4.3,0-8.61,0-12.91,0-.83-.06-1.65-.31-2.45-.31-.96-.78-1.81-1.68-2.34-.8-.47-1.66-.5-2.53-.23-1.2,.37-1.87,1.24-2.29,2.36-.31,.84-.36,1.72-.36,2.6,0,4.33,0,8.66,0,12.98,0,.69-.06,.75-.74,.75-.33,0-.67,0-1,0-.29,0-.4-.1-.43-.39-.01-.12-.01-.24-.01-.36,0-3.18,0-6.37,0-9.55Z"/>
    <path class="cls-4" d="M55.46,30.05c-.45,0-.78-.23-.93-.65-.15-.4-.29-.81-.43-1.21l-1.17-3.4c-.28-.81-.55-1.61-.83-2.41l-1.31-3.74c-.2-.57-.4-1.15-.58-1.72-.03-.09-.05-.16-.07-.2,0,0-.03,0-.07,0h-3.52v12.02c0,1.06-.26,1.32-1.31,1.32h-.74c-.59,0-.93-.32-.97-.91,0-.11,0-.23,0-.34V1.89c0-.84,.32-1.15,1.15-1.15h3.39c.84,0,1.68,0,2.52,0,1.05,0,1.99,.2,2.81,.58,1,.46,1.84,1.17,2.49,2.09,.42,.6,.76,1.27,1.05,2.06,.22,.61,.35,1.22,.4,1.82l.04,.4c.03,.32,.06,.64,.06,.96,0,.77-.05,1.46-.17,2.11-.09,.53-.24,1.06-.44,1.58-.4,1.05-.95,1.91-1.69,2.63-.58,.56-1.25,1-2,1.29-.04,.01-.13,.06-.14,.07,0,0,1.11,3.1,1.66,4.63l2.82,7.95c.14,.38,.05,.64-.06,.79-.1,.14-.3,.32-.7,.32h-.8c-.14,0-.45,0-.45,0Zm-5.94-15.93c.47,0,.92,0,1.36-.07,.81-.12,1.4-.37,1.87-.79,.93-.83,1.47-1.96,1.61-3.35,.12-1.15,.08-2.08-.13-2.93-.12-.51-.3-1.1-.64-1.63-.75-1.17-1.71-1.75-2.96-1.79-.65-.02-1.3-.03-1.95-.03h-2.15V14.11h2.98Z"/>
    <path class="cls-2" d="M43.94,15.4c0-4.42,0-8.85,0-13.27,0-.08,0-.16,0-.24,0-.6,.13-.73,.73-.73,1.97,0,3.94,0,5.91,0,.91,0,1.81,.16,2.64,.54,.94,.44,1.72,1.09,2.32,1.95,.43,.61,.75,1.27,1,1.97,.2,.55,.33,1.13,.38,1.71,.03,.44,.09,.89,.1,1.33,0,.68-.04,1.36-.16,2.04-.09,.52-.23,1.02-.42,1.51-.36,.94-.87,1.77-1.59,2.48-.54,.53-1.16,.93-1.86,1.2-.05,.02-.1,.04-.15,.07-.35,.18-.35,.19-.22,.55,.55,1.54,1.1,3.07,1.65,4.61,.53,1.48,1.05,2.97,1.58,4.46,.41,1.16,.83,2.33,1.24,3.49,.12,.34,0,.55-.37,.55-.41,0-.81,0-1.22,0-.29,0-.47-.11-.56-.38-.15-.4-.29-.8-.43-1.21-.29-.84-.58-1.68-.87-2.52-.38-1.1-.76-2.2-1.14-3.3-.44-1.25-.88-2.5-1.31-3.74-.2-.57-.39-1.14-.58-1.71-.14-.43-.19-.48-.63-.48-1.14,0-2.27,0-3.41,0-.41,0-.43,.03-.43,.43,0,4,0,8,0,12.01,0,.83-.07,.9-.89,.9-.25,0-.49,0-.74,0-.38,0-.53-.15-.56-.53-.01-.13,0-.27,0-.4,0-4.43,0-8.86,0-13.29Zm2.19-6.6c0,1.76,0,3.52,0,5.29,0,.38,.05,.44,.44,.44,.98,0,1.97,0,2.95,0,.48,0,.95,0,1.43-.07,.78-.12,1.49-.36,2.09-.9,1.08-.97,1.61-2.22,1.75-3.62,.11-1.02,.11-2.05-.14-3.07-.15-.62-.35-1.21-.69-1.76-.77-1.21-1.84-1.94-3.3-1.99-1.37-.04-2.75-.02-4.12-.02-.37,0-.41,.04-.41,.41,0,1.76,0,3.52,0,5.29Z"/>
    <path class="cls-9" d="M69.08,30.36c-.4,0-.82-.03-1.26-.09-1.56-.2-2.86-.9-3.84-2.07-.65-.77-1.09-1.69-1.3-2.73-.14-.69-.17-1.38-.17-2.19v-1.51c0-2.26,0-4.52,0-6.79,0-1.37,.23-2.44,.73-3.37,.95-1.77,2.39-2.84,4.3-3.17,.56-.1,1.09-.15,1.6-.15,1.13,0,2.18,.25,3.12,.73,1.49,.76,2.49,1.98,2.99,3.62,.21,.7,.31,1.47,.31,2.35v5.66c0,1.03,0,2.06,0,3.09,0,1.23-.21,2.22-.64,3.11-.64,1.35-1.64,2.34-2.98,2.92-.88,.39-1.81,.57-2.86,.57Zm-.08-19.2c-.13,0-.27,0-.4,.01-.59,.04-1.12,.24-1.58,.6-.92,.72-1.39,1.69-1.4,2.88-.02,2.01-.02,4.02-.02,6.03v2.96c0,.79,.12,1.42,.4,1.98,.49,.99,1.18,1.57,2.11,1.79,.34,.08,.66,.12,.97,.12,.9,0,1.66-.32,2.33-.99,.55-.54,.89-1.24,1.01-2.07,.07-.47,.07-.96,.07-1.43,0-.87,0-1.73,0-2.6v-2.17c0-1.01,0-2.03,0-3.04,0-.42,0-.78-.07-1.12-.13-.74-.42-1.35-.85-1.84-.4-.45-.84-.75-1.36-.94-.36-.13-.76-.19-1.21-.19Z"/>
    <path class="cls-6" d="M75.15,19.34c0,1.47,0,2.94,0,4.41,0,1.01-.15,2-.6,2.93-.59,1.25-1.51,2.16-2.77,2.72-1.25,.55-2.56,.63-3.9,.46-1.44-.19-2.64-.81-3.58-1.92-.63-.74-1.02-1.6-1.21-2.55-.14-.7-.16-1.4-.16-2.11,0-2.76,0-5.53,0-8.29,0-1.11,.15-2.18,.68-3.18,.86-1.62,2.18-2.64,4-2.95,1.54-.27,3.05-.18,4.46,.54,1.4,.72,2.32,1.86,2.78,3.37,.22,.73,.3,1.47,.3,2.23,0,1.45,0,2.89,0,4.34Zm-2.24,.01c0-1.37,0-2.75,0-4.12,0-.4,0-.8-.08-1.19-.14-.76-.43-1.46-.95-2.04-.42-.47-.92-.84-1.53-1.05-.58-.21-1.17-.24-1.78-.2-.68,.05-1.29,.28-1.81,.69-1.03,.81-1.55,1.91-1.56,3.2-.03,3-.02,6-.02,9,0,.75,.11,1.48,.45,2.17,.5,1.02,1.27,1.75,2.39,2.01,1.39,.32,2.65,.05,3.69-.98,.64-.64,1-1.43,1.13-2.3,.07-.49,.08-1,.07-1.5,0-1.23,0-2.46,0-3.69Z"/>
    <path class="cls-8" d="M87.82,30.37c-.51,0-1.04-.05-1.56-.15-2.04-.4-3.51-1.56-4.36-3.45-.37-.82-.56-1.69-.56-2.59,0-1.13,0-4.86,0-4.86,0-.02,0-.05,0-.07,0-.5,0-1,0-1.5-.01-1.16-.02-2.36,.02-3.54,.1-2.56,1.75-4.78,4.12-5.53,.82-.26,1.63-.39,2.42-.39,1.09,0,2.15,.25,3.15,.74,1.46,.72,2.47,1.91,2.98,3.54,.22,.69,.33,1.44,.33,2.21v3.04c0,2.08,0,4.16,0,6.25-.01,1.74-.59,3.21-1.71,4.39-.7,.74-1.55,1.26-2.52,1.56-.75,.23-1.52,.35-2.29,.35Zm.05-19.23c-.33,0-.68,.05-1.04,.14-.85,.22-1.5,.76-1.97,1.65-.32,.6-.47,1.29-.47,2.17v8.53c0,.89,.17,1.62,.53,2.23,.66,1.11,1.59,1.65,2.83,1.66h0c1.37,0,2.35-.57,3.04-1.75,.34-.58,.5-1.27,.5-2.17,.02-2.83,.02-5.67,0-8.5,0-.77-.12-1.38-.36-1.92-.3-.66-.7-1.15-1.24-1.5-.56-.36-1.17-.54-1.82-.54Z"/>
    <path class="cls-7" d="M81.76,19.32c0-1.7-.05-3.4,.01-5.1,.09-2.31,1.53-4.42,3.82-5.15,1.78-.56,3.56-.51,5.26,.33,1.39,.68,2.3,1.81,2.77,3.29,.21,.68,.31,1.37,.31,2.08,0,3.1,.01,6.19,0,9.29-.01,1.56-.5,2.96-1.59,4.11-.65,.68-1.43,1.17-2.34,1.45-1.2,.37-2.43,.42-3.65,.18-1.89-.37-3.26-1.44-4.06-3.21-.35-.77-.52-1.58-.52-2.42,0-1.62,0-3.24,0-4.86,0,0,0,0,0,0Zm2.21,.03c0,1.43,0,2.86,0,4.29,0,.86,.15,1.7,.59,2.44,.71,1.2,1.77,1.86,3.19,1.87,1.52,.01,2.65-.66,3.4-1.96,.43-.73,.55-1.55,.56-2.38,.02-2.83,.02-5.67,0-8.5,0-.71-.1-1.42-.4-2.09-.31-.69-.76-1.27-1.39-1.68-.99-.64-2.08-.75-3.2-.46-1.03,.27-1.74,.94-2.23,1.86-.39,.74-.52,1.54-.52,2.37,0,1.41,0,2.83,0,4.24Z"/>
    <path class="cls-3" d="M145.54,30.04c-.64,0-1.16-.04-1.63-.11-.96-.16-1.73-.5-2.36-1.04-.48-.42-.8-.97-1.02-1.74-.28-.98-.32-1.98-.32-2.82V11.26s-1.3,0-1.3,0c-.61,0-.92-.32-.93-.93,0-.28,0-.56,0-.84,0-.54,.28-.82,.82-.84,.21,0,.42,0,.64,0,0,0,.74,0,.77,0,0-.03,0-4.05,0-4.05,0-.17,0-.28,.01-.38,.07-.43,.36-.69,.77-.69h.96c.16,0,.32,0,.48,0,.3,0,.8,.12,.8,.84v4.27s2.42,0,2.42,0h.62c.43,.01,.73,.29,.78,.71,.04,.42,.04,.8,0,1.16-.09,.74-.73,.74-.95,.74h-2.87s0,12.56,0,12.56c0,.73,.05,1.27,.17,1.77,.24,1.01,.8,1.5,1.83,1.59,.18,.02,.36,.02,.55,.02h.31c.67,.03,.82,.47,.83,.83,.01,.39,.01,.78,0,1.18-.02,.37-.18,.81-.86,.82-.18,0-.36,0-.54,0Z"/>
    <path class="cls-14" d="M140.63,18.2c0-2.33,0-4.65,0-6.98,0-.36,0-.37-.38-.37-.45,0-.89,0-1.33,0-.38,0-.51-.14-.51-.52,0-.28,0-.56,0-.83,0-.31,.1-.42,.41-.43,.44,0,.87,0,1.31,0q.5,0,.5-.51c0-1.32,0-2.64,0-3.95,0-.1,0-.21,0-.31,.03-.2,.13-.34,.36-.34,.48,0,.95,0,1.43,0,.29,0,.39,.13,.39,.43,0,1.1,0,2.21,0,3.31,0,.33,0,.67,0,1,0,.31,.06,.38,.38,.38,.82,0,1.64,0,2.46,0,.21,0,.41,0,.62,0,.22,0,.34,.12,.37,.33,.04,.36,.04,.71,0,1.07-.04,.29-.18,.38-.53,.38-.94,0-1.88,0-2.81,0-.07,0-.14,0-.21,0-.17,0-.27,.07-.26,.25,0,.05,0,.1,0,.14,0,4.19,0,8.39,0,12.58,0,.63,.04,1.25,.18,1.87,.28,1.19,.98,1.8,2.2,1.91,.29,.03,.59,.02,.88,.03,.3,.01,.42,.12,.43,.42,.01,.38,.01,.76,0,1.14-.01,.31-.14,.42-.45,.42-.7,.02-1.4,.01-2.09-.1-.79-.13-1.53-.41-2.15-.94-.47-.41-.73-.95-.89-1.54-.25-.89-.3-1.8-.3-2.71,0-2.04,0-4.08,0-6.12Z"/>
    <g>
      <path class="cls-18" d="M130.29,30.04c-.54,0-.87-.3-.94-.83-.01-.1-.01-.19-.01-.29V9.97c0-.98,.28-1.26,1.26-1.26h.42c.13,0,.26,0,.4,0,.56,.03,.9,.35,.94,.92,0,.11,0,.21,0,.32V28.77c0,1.01-.26,1.27-1.27,1.27h-.79Z"/>
      <path class="cls-15" d="M131.94,19.38c0,3.13,0,6.26,0,9.39,0,.78-.08,.86-.86,.86-.26,0-.52,0-.79,0-.34,0-.49-.14-.54-.47-.01-.09,0-.19,0-.29,0-6.3,0-12.59,0-18.89,0-.75,.1-.85,.85-.85,.26,0,.52,0,.79,0,.35,.02,.52,.18,.54,.53,0,.12,0,.24,0,.36,0,3.12,0,6.24,0,9.36Z"/>
      <path class="cls-16" d="M130.78,5.45c-.67,0-1.26-.24-1.71-.69-.46-.46-.71-1.09-.71-1.74,0-1.23,.85-2.47,2.46-2.47,.69,0,1.29,.24,1.74,.7,.45,.45,.71,1.09,.7,1.76,0,1.39-1.03,2.42-2.44,2.44,0,0-.05,0-.05,0Z"/>
      <path class="cls-17" d="M132.86,3c0,1.17-.85,2.01-2.03,2.03-1.32,.02-2.05-1.04-2.05-2.01,0-1.09,.73-2.06,2.05-2.06,1.26,0,2.03,.97,2.02,2.03Z"/>
    </g>
  </g>
  <g>
    <path class="cls-1" d="M24.71,18.31c0,4.17,0,8.34,0,12.5q0,.35-.35,.35c-1.95,0-4.5,0-6.45,0,0-.22,0-.06,0-.4,0-5.51-.01-10.97,0-16.48,0-.4-.05-.62-.38-.84-1.44-.97-2.76-1.88-4.19-2.86-1.96-1.34-4.64-2.54-6.6-3.89-.41-.28-1.43-1.62-1.41-1.69,.02-.08,1.29-.22,1.36-.22,5.93,0,12.1-.42,18.02-.42,.37,0,.63,1.14,.63,1.49,0,4.18-.63,8.27-.63,12.45Z"/>
    <g>
      <path class="cls-10" d="M5.79,31.1c-.1,.05-.22,.05-.33,.05-1.72,0-3.45,0-5.17,0C.06,31.15,0,31.08,0,30.85,0,20.66,0,10.48,0,.29,0,.08,.05,0,.28,0,10.47,0,20.67,0,30.86,0c.24,0,.31,.08,.31,.31,0,10.16,0,20.33,0,30.49,0,.19,0,.36-.26,.35-.25,0-5.36,0-6.2,0,0-8.44-.05-17.19-.05-25.64q0-.37-.36-.37c-6.06,0-12.11,0-18.17,0-.07,0-.15-.01-.21,0-.13,.04-.21,.11-.12,.26,0,.1,0,.21,0,.31,0,7.62,0,15.23,0,22.85,0,.84,0,1.68,0,2.52Z"/>
      <path class="cls-12" d="M17.9,39.38c0-2.62-.04-8.04,.01-8.22,1.26,0,5.82,0,6.8,0-.57,.73-1.28,1.47-1.85,2.2-1.29,1.65-2.57,3.3-3.86,4.95-.27,.35-.56,.69-.83,1.04-.09,.12-.17,.12-.27,.02Z"/>
      <path class="cls-13" d="M5.79,31.1c0-.84,0-1.68,0-2.52,0-7.62,0-15.23,0-22.85,0-.1,0-.21,0-.31,.04,.02,.09,.04,.13,.06,.69,.47,1.38,.95,2.07,1.42,1.56,1.08,3.13,2.15,4.69,3.23,1.64,1.13,3.29,2.26,4.94,3.37,.21,.14,.28,.29,.28,.54,0,5.5,0,11,0,16.5,0,.21,0,.43,0,.64,0,.11-.01,.22-.01,.33,0,2.62,0,5.24,0,7.86-.49-.26-.92-.61-1.38-.92-1.27-.86-2.52-1.73-3.78-2.6-1.41-.97-2.82-1.94-4.24-2.91-.9-.62-1.81-1.24-2.71-1.85Z"/>
    </g>
  </g>
</svg>