<?xml version="1.0" encoding="UTF-8"?>
<svg id="_圖層_1" data-name="圖層 1" xmlns="http://www.w3.org/2000/svg" xmlns:xlink="http://www.w3.org/1999/xlink" viewBox="0 0 25 25">
  <defs>
    <style>
      .cls-1 {
        fill: #fff;
      }

      .cls-2 {
        fill: url(#_未命名漸層_111);
      }

      .cls-3 {
        fill: url(#_未命名漸層_11);
      }

      .cls-4 {
        fill: url(#_未命名漸層_88);
      }
    </style>
    <linearGradient id="_未命名漸層_111" data-name="未命名漸層 111" x1="12.5" y1="19.11" x2="12.5" y2="1.09" gradientUnits="userSpaceOnUse">
      <stop offset="0" stop-color="#ec4899"/>
      <stop offset=".3" stop-color="#eb5593"/>
      <stop offset=".87" stop-color="#e87a84"/>
      <stop offset="1" stop-color="#e88481"/>
    </linearGradient>
    <linearGradient id="_未命名漸層_11" data-name="未命名漸層 11" x1="15.81" y1="23.91" x2="15.81" y2="19.13" gradientUnits="userSpaceOnUse">
      <stop offset="0" stop-color="#ec4899"/>
      <stop offset=".59" stop-color="#f7b7d7"/>
      <stop offset=".98" stop-color="#fff"/>
    </linearGradient>
    <linearGradient id="_未命名漸層_88" data-name="未命名漸層 88" x1="10.34" y1="23.87" x2="10.34" y2="4.23" gradientUnits="userSpaceOnUse">
      <stop offset="0" stop-color="#ec4899"/>
      <stop offset=".13" stop-color="#eb5195"/>
      <stop offset=".7" stop-color="#e87686"/>
      <stop offset="1" stop-color="#e88481"/>
    </linearGradient>
  </defs>
  <path class="cls-1" d="M17.78,11.68c0,2.41,0,4.82,0,7.23q0,.2-.2,.2c-1.13,0-2.6,0-3.73,0,0-.13,0-.04,0-.23,0-3.19,0-6.34,0-9.53,0-.23-.03-.36-.22-.49-.83-.56-1.6-1.09-2.42-1.66-1.13-.78-2.68-1.47-3.82-2.25-.24-.16-.83-.93-.82-.98,.01-.05,.75-.13,.78-.13,3.43,0,6.99-.24,10.42-.24,.21,0,.36,.66,.36,.86,0,2.42-.36,4.78-.36,7.2Z"/>
  <g>
    <path class="cls-2" d="M6.84,19.08c-.06,.03-.13,.03-.19,.03-1,0-1.99,0-2.99,0-.14,0-.17-.04-.17-.17,0-5.89,0-11.78,0-17.67,0-.12,.03-.17,.16-.17,5.9,0,11.79,0,17.69,0,.14,0,.18,.04,.18,.18,0,5.88,0,11.76,0,17.63,0,.11,0,.21-.15,.2-.15,0-3.1,0-3.58,0,0-4.88-.03-9.94-.03-14.82q0-.21-.21-.21c-3.5,0-7,0-10.51,0-.04,0-.09,0-.12,0-.07,.02-.12,.06-.07,.15,0,.06,0,.12,0,.18,0,4.41,0,8.81,0,13.22,0,.49,0,.97,0,1.46Z"/>
    <path class="cls-3" d="M13.84,23.87c0-1.51-.03-4.65,0-4.75,.73,0,3.37,0,3.93,0-.33,.42-.74,.85-1.07,1.27-.74,.96-1.49,1.91-2.23,2.86-.16,.2-.32,.4-.48,.6-.05,.07-.1,.07-.16,.01Z"/>
    <path class="cls-4" d="M6.84,19.08c0-.49,0-.97,0-1.46,0-4.41,0-8.81,0-13.22,0-.06,0-.12,0-.18,.02,.01,.05,.02,.07,.04,.4,.27,.8,.55,1.2,.82,.9,.62,1.81,1.24,2.71,1.87,.95,.65,1.9,1.3,2.86,1.95,.12,.08,.16,.17,.16,.32,0,3.18,0,6.36,0,9.54,0,.12,0,.25,0,.37,0,.06,0,.13,0,.19,0,1.51,0,3.03,0,4.54-.28-.15-.53-.35-.8-.53-.73-.5-1.46-1-2.19-1.5-.82-.56-1.63-1.12-2.45-1.68-.52-.36-1.04-.71-1.57-1.07Z"/>
  </g>
</svg>