<?xml version="1.0" encoding="UTF-8"?>
<svg id="_圖層_1" data-name="圖層 1" xmlns="http://www.w3.org/2000/svg" xmlns:xlink="http://www.w3.org/1999/xlink" viewBox="0 0 20 20">
  <defs>
    <style>
      .cls-1 {
        fill: #fff;
      }

      .cls-2 {
        fill: url(#_未命名漸層_111);
      }

      .cls-3 {
        fill: url(#_未命名漸層_11);
      }

      .cls-4 {
        fill: url(#_未命名漸層_88);
      }
    </style>
    <linearGradient id="_未命名漸層_111" data-name="未命名漸層 111" x1="10" y1="15.46" x2="10" y2=".59" gradientUnits="userSpaceOnUse">
      <stop offset="0" stop-color="#ec4899"/>
      <stop offset=".3" stop-color="#eb5593"/>
      <stop offset=".87" stop-color="#e87a84"/>
      <stop offset="1" stop-color="#e88481"/>
    </linearGradient>
    <linearGradient id="_未命名漸層_11" data-name="未命名漸層 11" x1="12.73" y1="19.41" x2="12.73" y2="15.47" gradientUnits="userSpaceOnUse">
      <stop offset="0" stop-color="#ec4899"/>
      <stop offset=".59" stop-color="#f7b7d7"/>
      <stop offset=".98" stop-color="#fff"/>
    </linearGradient>
    <linearGradient id="_未命名漸層_88" data-name="未命名漸層 88" x1="8.22" y1="19.38" x2="8.22" y2="3.17" gradientUnits="userSpaceOnUse">
      <stop offset="0" stop-color="#ec4899"/>
      <stop offset=".13" stop-color="#eb5195"/>
      <stop offset=".7" stop-color="#e87686"/>
      <stop offset="1" stop-color="#e88481"/>
    </linearGradient>
  </defs>
  <path class="cls-1" d="M14.35,9.32c0,1.99,0,3.98,0,5.97q0,.17-.17,.17c-.93,0-2.15,0-3.08,0,0-.11,0-.03,0-.19,0-2.63,0-5.23,0-7.86,0-.19-.02-.3-.18-.4-.69-.46-1.32-.9-2-1.37-.94-.64-2.21-1.21-3.15-1.85-.2-.13-.68-.77-.67-.81,.01-.04,.62-.11,.65-.11,2.83,0,5.77-.2,8.6-.2,.17,0,.3,.54,.3,.71,0,1.99-.3,3.95-.3,5.94Z"/>
  <g>
    <path class="cls-2" d="M5.33,15.43s-.1,.02-.16,.02c-.82,0-1.65,0-2.47,0-.11,0-.14-.04-.14-.14,0-4.86,0-9.72,0-14.58,0-.1,.02-.14,.13-.14,4.86,0,9.73,0,14.59,0,.12,0,.15,.04,.15,.15,0,4.85,0,9.7,0,14.55,0,.09,0,.17-.12,.17-.12,0-2.56,0-2.96,0,0-4.03-.02-8.2-.02-12.23q0-.18-.17-.18c-2.89,0-5.78,0-8.67,0-.03,0-.07,0-.1,0-.06,.02-.1,.05-.06,.12,0,.05,0,.1,0,.15,0,3.63,0,7.27,0,10.9,0,.4,0,.8,0,1.2Z"/>
    <path class="cls-3" d="M11.11,19.38c0-1.25-.02-3.84,0-3.92,.6,0,2.78,0,3.24,0-.27,.35-.61,.7-.88,1.05-.61,.79-1.23,1.58-1.84,2.36-.13,.17-.26,.33-.39,.5-.04,.06-.08,.06-.13,.01Z"/>
    <path class="cls-4" d="M5.33,15.43c0-.4,0-.8,0-1.2,0-3.63,0-7.27,0-10.9,0-.05,0-.1,0-.15,.02,0,.04,.02,.06,.03,.33,.23,.66,.45,.99,.68,.75,.51,1.49,1.03,2.24,1.54,.78,.54,1.57,1.08,2.36,1.61,.1,.07,.13,.14,.13,.26,0,2.62,0,5.25,0,7.87,0,.1,0,.2,0,.31,0,.05,0,.11,0,.16,0,1.25,0,2.5,0,3.75-.23-.13-.44-.29-.66-.44-.6-.41-1.2-.83-1.81-1.24-.67-.46-1.35-.93-2.02-1.39-.43-.3-.86-.59-1.29-.88Z"/>
  </g>
</svg>